<svg xmlns="http://www.w3.org/2000/svg" xmlns:xlink="http://www.w3.org/1999/xlink" width="796.905" height="201.916" viewBox="0 0 796.905 201.916">
  <defs>
    <clipPath id="clip-path">
      <rect id="Retângulo_1" data-name="Retângulo 1" width="100.016" height="100.016" transform="translate(221.424 136.872)" fill="none"/>
    </clipPath>
    <clipPath id="clip-path-2">
      <rect id="Retângulo_2" data-name="Retângulo 2" width="142.882" height="100.016" transform="translate(326.951 136.872)" fill="none"/>
    </clipPath>
    <clipPath id="clip-path-3">
      <rect id="Retângulo_3" data-name="Retângulo 3" width="100.016" height="100.016" transform="translate(473.935 136.872)" fill="none"/>
    </clipPath>
    <clipPath id="clip-path-4">
      <rect id="Retângulo_4" data-name="Retângulo 4" width="57.152" height="142.88" transform="translate(566.532 93.648)" fill="none"/>
    </clipPath>
    <clipPath id="clip-path-5">
      <rect id="Retângulo_5" data-name="Retângulo 5" width="100.016" height="100.016" transform="translate(616.949 136.872)" fill="none"/>
    </clipPath>
    <clipPath id="clip-path-6">
      <rect id="Retângulo_6" data-name="Retângulo 6" width="85.103" height="100.016" transform="translate(721.475 136.469)" fill="none"/>
    </clipPath>
    <clipPath id="clip-path-7">
      <rect id="Retângulo_7" data-name="Retângulo 7" width="92.872" height="142.88" transform="translate(814.571 94.008)" fill="none"/>
    </clipPath>
    <clipPath id="clip-path-8">
      <rect id="Retângulo_8" data-name="Retângulo 8" width="793.976" height="25.507" transform="translate(110.538 270.057)" fill="none"/>
    </clipPath>
  </defs>
  <g id="Grupo_125" data-name="Grupo 125" transform="translate(-110.538 -93.648)">
    <path id="Caminho_1" data-name="Caminho 1" d="M146.281,94.009q29.556,0,50.5,20.941t20.941,50.5q0,29.559-20.941,50.5t-50.5,20.941H117.705a7.165,7.165,0,0,1-7.144-7.144V101.153a7.163,7.163,0,0,1,7.144-7.144Zm0,128.592a57.168,57.168,0,0,0,57.152-57.152A57.166,57.166,0,0,0,146.281,108.3H124.849V222.6Z" fill="#009adb"/>
    <g id="Grupo_3" data-name="Grupo 3">
      <g id="Grupo_2" data-name="Grupo 2">
        <g id="Grupo_1" data-name="Grupo 1" clip-path="url(#clip-path)">
          <path id="Caminho_2" data-name="Caminho 2" d="M321.441,186.88a50.011,50.011,0,0,1-85.371,35.363,50.018,50.018,0,0,1,0-70.726,50.008,50.008,0,0,1,85.371,35.363m-50.008-35.72a35.672,35.672,0,0,0-35.72,35.72,35.739,35.739,0,1,0,35.72-35.72" fill="#009adb"/>
        </g>
      </g>
    </g>
    <g id="Grupo_6" data-name="Grupo 6">
      <g id="Grupo_5" data-name="Grupo 5">
        <g id="Grupo_4" data-name="Grupo 4" clip-path="url(#clip-path-2)">
          <path id="Caminho_3" data-name="Caminho 3" d="M341.239,229.744a7.144,7.144,0,0,1-14.288,0V144.016a7.144,7.144,0,0,1,14.288,0v1.875a37.426,37.426,0,0,1,25-9.019,37.85,37.85,0,0,1,27.772,11.52,43.9,43.9,0,0,1,4.376,5.09,43.7,43.7,0,0,1,4.376-5.09,39.292,39.292,0,0,1,67.065,27.772v53.58a7.144,7.144,0,0,1-14.288,0v-53.58a25,25,0,1,0-50.009,0v53.58a7.144,7.144,0,0,1-14.288,0v-53.58a25,25,0,1,0-50.008,0Z" fill="#009adb"/>
        </g>
      </g>
    </g>
    <g id="Grupo_9" data-name="Grupo 9">
      <g id="Grupo_8" data-name="Grupo 8">
        <g id="Grupo_7" data-name="Grupo 7" clip-path="url(#clip-path-3)">
          <path id="Caminho_4" data-name="Caminho 4" d="M559.663,221.886q-15,15-35.721,15a50,50,0,0,1-50.008-50.008,50.008,50.008,0,1,1,100.017,0v42.864a7.144,7.144,0,0,1-14.288,0ZM523.942,151.16a35.674,35.674,0,0,0-35.72,35.72,35.74,35.74,0,1,0,35.72-35.72" fill="#009adb"/>
        </g>
      </g>
    </g>
    <g id="Grupo_12" data-name="Grupo 12">
      <g id="Grupo_11" data-name="Grupo 11">
        <g id="Grupo_10" data-name="Grupo 10" clip-path="url(#clip-path-4)">
          <path id="Caminho_5" data-name="Caminho 5" d="M616.54,222.24a7.144,7.144,0,0,1,0,14.288q-35.719,0-35.72-35.72V150.8h-7.144a7.144,7.144,0,0,1,0-14.288h7.144v-35.72a7.144,7.144,0,0,1,14.288,0v35.72h14.377a7.144,7.144,0,0,1,0,14.288H595.108v50.008q0,21.432,21.432,21.432" fill="#009adb"/>
        </g>
      </g>
    </g>
    <g id="Grupo_15" data-name="Grupo 15">
      <g id="Grupo_14" data-name="Grupo 14">
        <g id="Grupo_13" data-name="Grupo 13" clip-path="url(#clip-path-5)">
          <path id="Caminho_6" data-name="Caminho 6" d="M694.462,212.6a7.167,7.167,0,0,1,7.144,7.144,7.113,7.113,0,0,1-2.054,5.091,50.022,50.022,0,0,1-82.6-37.953,50.008,50.008,0,1,1,100.016,0,7.167,7.167,0,0,1-7.143,7.144H631.863A35.89,35.89,0,0,0,666.957,222.6,33.7,33.7,0,0,0,690,214.116a7.115,7.115,0,0,1,4.466-1.518m7.59-32.862a35.844,35.844,0,0,0-70.189,0Z" fill="#009adb"/>
        </g>
      </g>
    </g>
    <g id="Grupo_18" data-name="Grupo 18">
      <g id="Grupo_17" data-name="Grupo 17">
        <g id="Grupo_16" data-name="Grupo 16" clip-path="url(#clip-path-6)">
          <path id="Caminho_7" data-name="Caminho 7" d="M799.166,212.017a7.165,7.165,0,0,1,7.144,7.144,7.411,7.411,0,0,1-2.233,5.269,50.021,50.021,0,0,1-82.6-37.953,50.03,50.03,0,0,1,82.6-37.953,7.134,7.134,0,0,1,2.5,5.537,7.167,7.167,0,0,1-7.144,7.144,6.975,6.975,0,0,1-4.554-1.607,35.642,35.642,0,0,0-59.117,26.879,35.636,35.636,0,0,0,59.027,26.969,7.025,7.025,0,0,1,4.376-1.429" fill="#009adb"/>
        </g>
      </g>
    </g>
    <g id="Grupo_21" data-name="Grupo 21">
      <g id="Grupo_20" data-name="Grupo 20">
        <g id="Grupo_19" data-name="Grupo 19" clip-path="url(#clip-path-7)">
          <path id="Caminho_8" data-name="Caminho 8" d="M814.571,101.152a7.144,7.144,0,0,1,14.288,0V149.82a46.443,46.443,0,0,1,78.584,33.488v46.436a7.144,7.144,0,0,1-14.288,0V183.308a32.148,32.148,0,0,0-64.3,0v46.436a7.144,7.144,0,0,1-14.288,0Z" fill="#009adb"/>
        </g>
      </g>
    </g>
    <g id="Grupo_24" data-name="Grupo 24">
      <g id="Grupo_23" data-name="Grupo 23">
        <g id="Grupo_22" data-name="Grupo 22" clip-path="url(#clip-path-8)">
          <path id="Caminho_9" data-name="Caminho 9" d="M126.224,289.119a4.019,4.019,0,0,0-1.45-3.265,15.309,15.309,0,0,0-5.3-2.285,18.536,18.536,0,0,1-5.628-2.362,5.727,5.727,0,0,1-.179-9.368,9.627,9.627,0,0,1,5.994-1.782,9.938,9.938,0,0,1,4.424.955,7.23,7.23,0,0,1,3.026,2.66,6.984,6.984,0,0,1,1.074,3.8H126.07a5.217,5.217,0,0,0-1.739-4.1,6.768,6.768,0,0,0-4.671-1.548,7.36,7.36,0,0,0-4.536,1.272,3.968,3.968,0,0,0-1.687,3.322,3.757,3.757,0,0,0,1.517,3.091,14.063,14.063,0,0,0,4.859,2.109,22.851,22.851,0,0,1,5.063,1.894,7.231,7.231,0,0,1,2.593,2.344,5.875,5.875,0,0,1,.869,3.223,5.611,5.611,0,0,1-2.344,4.706,9.986,9.986,0,0,1-6.181,1.773,12.124,12.124,0,0,1-4.818-.938A7.359,7.359,0,0,1,111.671,292a6.775,6.775,0,0,1-1.133-3.87h2.1a4.95,4.95,0,0,0,1.961,4.143,8.286,8.286,0,0,0,5.217,1.518,7.732,7.732,0,0,0,4.655-1.279,4,4,0,0,0,1.756-3.393" fill="#202020"/>
          <path id="Caminho_10" data-name="Caminho 10" d="M189.4,284.157a14.349,14.349,0,0,1-1.185,6.02,9.05,9.05,0,0,1-3.385,3.99,9.274,9.274,0,0,1-5.081,1.4,8.82,8.82,0,0,1-7.025-3.112,12.447,12.447,0,0,1-2.676-8.4V281.5a14.253,14.253,0,0,1,1.2-6.011,8.934,8.934,0,0,1,8.465-5.43,9.275,9.275,0,0,1,5.056,1.381,9.094,9.094,0,0,1,3.385,3.9,14.066,14.066,0,0,1,1.244,5.849Zm-2.1-2.693a10.964,10.964,0,0,0-2.03-7.025,7.295,7.295,0,0,0-11.074.009,11.056,11.056,0,0,0-2.054,7.118v2.591a10.966,10.966,0,0,0,2.046,7,7.3,7.3,0,0,0,11.117.034,11.264,11.264,0,0,0,2-7.1Z" fill="#202020"/>
          <path id="Caminho_11" data-name="Caminho 11" d="M246.566,283.612H234.988v11.611h-2.1V270.4h15.379v1.774H234.988v9.667h11.578Z" fill="#202020"/>
          <path id="Caminho_12" data-name="Caminho 12" d="M307.923,272.171h-8.508v23.052h-2.1V272.171h-8.491V270.4h19.1Z" fill="#202020"/>
          <path id="Caminho_13" data-name="Caminho 13" d="M354.973,288.523l.767,3.853.937-3.683,5.389-18.3h1.892l5.32,18.3.921,3.718.817-3.888L375.5,270.4h2.148l-6.36,24.826h-2.012l-5.627-19.42-.631-2.456-.613,2.456-5.763,19.42h-2.013L348.289,270.4h2.148Z" fill="#202020"/>
          <path id="Caminho_14" data-name="Caminho 14" d="M432.559,288.249h-11.27l-2.558,6.975h-2.2l9.393-24.826h2l9.395,24.826h-2.182Zm-10.621-1.772h9.956l-4.979-13.521Z" fill="#202020"/>
          <path id="Caminho_15" data-name="Caminho 15" d="M488.443,284.874H481.23v10.35h-2.113V270.4h8.065a9.2,9.2,0,0,1,6.2,1.925,7.346,7.346,0,0,1,.836,9.588,7.143,7.143,0,0,1-3.751,2.52L496.679,295v.223h-2.234ZM481.23,283.1h6.429a5.953,5.953,0,0,0,4.245-1.5,5.675,5.675,0,0,0-.068-7.975,6.922,6.922,0,0,0-4.689-1.451H481.23Z" fill="#202020"/>
          <path id="Caminho_16" data-name="Caminho 16" d="M553.243,283.322H541.631V293.45h13.35v1.773H539.534V270.4H554.9v1.774H541.631v9.377h11.612Z" fill="#202020"/>
          <path id="Caminho_17" data-name="Caminho 17" d="M662.688,295.223h-2.113v-11.9H646.388v11.9h-2.1V270.4h2.1v11.15h14.187V270.4h2.113Z" fill="#202020"/>
          <path id="Caminho_18" data-name="Caminho 18" d="M725.545,284.157a14.333,14.333,0,0,1-1.186,6.02,9.042,9.042,0,0,1-3.384,3.99,9.276,9.276,0,0,1-5.081,1.4,8.819,8.819,0,0,1-7.025-3.112,12.446,12.446,0,0,1-2.676-8.4V281.5a14.269,14.269,0,0,1,1.2-6.011,8.937,8.937,0,0,1,8.465-5.43,9.279,9.279,0,0,1,5.057,1.381,9.086,9.086,0,0,1,3.384,3.9,14.065,14.065,0,0,1,1.245,5.849Zm-2.1-2.693a10.971,10.971,0,0,0-2.029-7.025,7.3,7.3,0,0,0-11.075.009,11.062,11.062,0,0,0-2.053,7.118v2.591a10.966,10.966,0,0,0,2.046,7,7.3,7.3,0,0,0,11.117.034,11.27,11.27,0,0,0,1.994-7.1Z" fill="#202020"/>
          <path id="Caminho_19" data-name="Caminho 19" d="M786.134,270.4v16.948a8.577,8.577,0,0,1-1.107,4.364,7.264,7.264,0,0,1-3.079,2.856,10.026,10.026,0,0,1-4.56,1,9,9,0,0,1-6.283-2.14,7.841,7.841,0,0,1-2.448-5.924V270.4h2.081v16.794a6.452,6.452,0,0,0,1.791,4.869,7.661,7.661,0,0,0,9.709-.009,6.454,6.454,0,0,0,1.782-4.842V270.4Z" fill="#202020"/>
          <path id="Caminho_20" data-name="Caminho 20" d="M844.233,289.119a4.019,4.019,0,0,0-1.45-3.265,15.3,15.3,0,0,0-5.3-2.285,18.551,18.551,0,0,1-5.627-2.362,5.728,5.728,0,0,1-.18-9.368,9.631,9.631,0,0,1,5.995-1.782,9.938,9.938,0,0,1,4.424.955,7.237,7.237,0,0,1,3.026,2.66,6.985,6.985,0,0,1,1.075,3.8h-2.115a5.214,5.214,0,0,0-1.739-4.1,6.768,6.768,0,0,0-4.671-1.548,7.363,7.363,0,0,0-4.537,1.272,3.97,3.97,0,0,0-1.686,3.322,3.757,3.757,0,0,0,1.517,3.091,14.054,14.054,0,0,0,4.859,2.109,22.832,22.832,0,0,1,5.063,1.894,7.219,7.219,0,0,1,2.592,2.344,5.866,5.866,0,0,1,.869,3.223A5.61,5.61,0,0,1,844,293.791a9.988,9.988,0,0,1-6.181,1.773,12.128,12.128,0,0,1-4.818-.938A7.367,7.367,0,0,1,829.679,292a6.774,6.774,0,0,1-1.132-3.87h2.1a4.951,4.951,0,0,0,1.96,4.143,8.293,8.293,0,0,0,5.218,1.518,7.734,7.734,0,0,0,4.655-1.279,4,4,0,0,0,1.756-3.393" fill="#202020"/>
          <path id="Caminho_21" data-name="Caminho 21" d="M902.775,283.322H891.164V293.45h13.349v1.773H889.066V270.4h15.362v1.774H891.164v9.377h11.611Z" fill="#202020"/>
        </g>
      </g>
    </g>
  </g>
</svg>
